<svg width="28" height="28" viewBox="0 0 28 28" fill="none" xmlns="http://www.w3.org/2000/svg">
<g clip-path="url(#clip0)">
<path d="M18.1722 7.44934H9.82687C8.49485 7.44934 7.41113 8.53306 7.41113 9.86508V18.2104C7.41113 19.5424 8.49485 20.6264 9.82687 20.6264H18.1722C19.5042 20.6264 20.5882 19.5427 20.5882 18.2104V9.86508C20.5882 8.53306 19.5045 7.44934 18.1722 7.44934ZM13.9995 18.3757C11.6078 18.3757 9.66185 16.4298 9.66185 14.0377C9.66185 11.646 11.6078 9.70006 13.9995 9.70006C16.3915 9.70006 18.3375 11.646 18.3375 14.0377C18.3375 16.4294 16.3912 18.3757 13.9995 18.3757ZM18.4769 10.5969C17.9107 10.5969 17.4503 10.1365 17.4503 9.5706C17.4503 9.00472 17.9107 8.54428 18.4769 8.54428C19.0428 8.54428 19.5032 9.00472 19.5032 9.5706C19.5032 10.1365 19.0428 10.5969 18.4769 10.5969Z" fill="#3FAB3C"/>
<path d="M13.9995 11.5331C12.6188 11.5331 11.4945 12.6567 11.4945 14.0374C11.4945 15.4187 12.6188 16.5427 13.9995 16.5427C15.3808 16.5427 16.5041 15.4187 16.5041 14.0374C16.5041 12.657 15.3805 11.5331 13.9995 11.5331Z" fill="#3FAB3C"/>
<path d="M13.9995 0C6.26783 0 -0.000488281 6.26832 -0.000488281 14C-0.000488281 21.7317 6.26783 28 13.9995 28C21.7312 28 27.9995 21.7317 27.9995 14C27.9995 6.26832 21.7312 0 13.9995 0ZM22.4209 18.2104C22.4209 20.5534 20.5152 22.4591 18.1722 22.4591H9.82687C7.48413 22.4591 5.57811 20.5534 5.57811 18.2104V9.8651C5.57811 7.52236 7.48413 5.61635 9.82687 5.61635H18.1722C20.5152 5.61635 22.4209 7.52236 22.4209 9.8651V18.2104Z" fill="#3FAB3C"/>
</g>
<defs>
<clipPath id="clip0">
<rect width="28" height="28" fill="white" transform="translate(-0.000488281)"/>
</clipPath>
</defs>
</svg>
