<svg width="28" height="28" viewBox="0 0 28 28" fill="none" xmlns="http://www.w3.org/2000/svg">
<g clip-path="url(#clip0)">
<path d="M-0.000488281 14C-0.000488281 21.732 6.26753 28 13.9995 28C21.7315 28 27.9995 21.732 27.9995 14C27.9995 6.26801 21.7315 0 13.9995 0C6.26753 0 -0.000488281 6.26801 -0.000488281 14Z" fill="#3FAB3C"/>
<path d="M22.8548 9.02558L22.8493 9.00346C22.402 7.19529 20.3856 5.25502 18.5338 4.85136L18.5129 4.84706C15.5177 4.27567 12.4807 4.27567 9.48616 4.84706L9.46465 4.85136C7.61347 5.25502 5.59702 7.19529 5.14913 9.00346L5.14421 9.02558C4.59125 11.5508 4.59125 14.1116 5.14421 16.6367L5.14913 16.6589C5.57791 18.3899 7.44421 20.241 9.22688 20.7501V22.7685C9.22688 23.499 10.1171 23.8578 10.6234 23.3307L12.6684 21.2049C13.112 21.2297 13.5557 21.2435 13.9995 21.2435C15.5073 21.2435 17.0156 21.101 18.5129 20.8153L18.5338 20.811C20.3856 20.4074 22.402 18.4671 22.8493 16.6589L22.8548 16.6368C23.4078 14.1116 23.4078 11.5508 22.8548 9.02558ZM21.2365 16.2706C20.9379 17.4502 19.4068 18.9168 18.1903 19.1877C16.5977 19.4906 14.9926 19.62 13.389 19.5756C13.3571 19.5747 13.3264 19.5871 13.3042 19.6099C13.0766 19.8435 11.811 21.1427 11.811 21.1427L10.2228 22.7727C10.1067 22.8938 9.90272 22.8114 9.90272 22.6443V19.3006C9.90272 19.2454 9.86328 19.1985 9.80902 19.1878C9.80872 19.1878 9.80841 19.1877 9.8081 19.1877C8.5916 18.9167 7.06113 17.4501 6.76192 16.2705C6.26426 13.988 6.26426 11.6742 6.76192 9.3917C7.06113 8.21205 8.5916 6.74549 9.8081 6.47454C12.5895 5.94554 15.4096 5.94554 18.1903 6.47454C19.4074 6.74549 20.9379 8.21205 21.2365 9.3917C21.7347 11.6742 21.7347 13.9881 21.2365 16.2706Z" fill="white"/>
<path d="M16.6457 17.814C16.4587 17.7572 16.2805 17.7191 16.1149 17.6504C14.3998 16.9388 12.8213 16.0207 11.5709 14.6135C10.8599 13.8132 10.3034 12.9097 9.83291 11.9536C9.60982 11.5002 9.42182 11.029 9.23019 10.5609C9.05545 10.134 9.31282 9.693 9.58383 9.37136C9.83813 9.06951 10.1654 8.8385 10.5197 8.66825C10.7963 8.53535 11.0692 8.61197 11.2712 8.84642C11.7079 9.3533 12.1091 9.8861 12.4339 10.4737C12.6336 10.835 12.5788 11.2768 12.2168 11.5227C12.1289 11.5825 12.0487 11.6527 11.9667 11.7202C11.8948 11.7794 11.8272 11.8391 11.7779 11.9193C11.6878 12.0659 11.6835 12.2388 11.7415 12.3981C12.188 13.625 12.9404 14.5789 14.1752 15.0928C14.3728 15.175 14.5713 15.2707 14.7989 15.2441C15.1801 15.1996 15.3036 14.7814 15.5707 14.563C15.8318 14.3495 16.1655 14.3466 16.4468 14.5246C16.7281 14.7027 17.0008 14.8938 17.2719 15.087C17.538 15.2766 17.8029 15.4621 18.0484 15.6782C18.2844 15.8861 18.3657 16.1587 18.2328 16.4408C17.9895 16.9574 17.6355 17.3872 17.1248 17.6615C16.9806 17.7388 16.8084 17.7639 16.6457 17.814C16.4587 17.7571 16.8084 17.7639 16.6457 17.814Z" fill="white"/>
<path d="M14.0042 8.07759C16.2477 8.14045 18.0903 9.62932 18.4852 11.8473C18.5525 12.2252 18.5764 12.6116 18.6064 12.9952C18.619 13.1565 18.5276 13.3098 18.3535 13.3119C18.1736 13.314 18.0927 13.1636 18.081 13.0023C18.0579 12.6831 18.0419 12.3624 17.9979 12.0458C17.7657 10.3746 16.433 8.99194 14.7696 8.69525C14.5193 8.65058 14.263 8.63885 14.0095 8.61224C13.8492 8.59541 13.6393 8.5857 13.6037 8.38645C13.5739 8.2194 13.7149 8.08638 13.874 8.07784C13.9173 8.07544 13.9608 8.07741 14.0042 8.07759C16.2477 8.14045 13.9608 8.07741 14.0042 8.07759Z" fill="white"/>
<path d="M17.4135 12.4973C17.4098 12.5253 17.4079 12.5911 17.3915 12.6532C17.3319 12.8784 16.9905 12.9066 16.9118 12.6793C16.8885 12.6119 16.885 12.5351 16.8849 12.4625C16.8841 11.9873 16.7808 11.5126 16.5412 11.0992C16.2949 10.6743 15.9186 10.3171 15.4772 10.1009C15.2103 9.97025 14.9217 9.88903 14.6291 9.84061C14.5013 9.81948 14.3721 9.80663 14.2436 9.78875C14.0879 9.76713 14.0048 9.6679 14.0122 9.51449C14.0191 9.37072 14.1241 9.26731 14.2808 9.27616C14.7956 9.30541 15.2929 9.41668 15.7507 9.65906C16.6815 10.152 17.2132 10.9301 17.3684 11.969C17.3754 12.0161 17.3867 12.0627 17.3902 12.11C17.399 12.2266 17.4046 12.3434 17.4135 12.4973C17.4098 12.5253 17.4046 12.3434 17.4135 12.4973Z" fill="white"/>
<path d="M16.0183 12.443C15.8306 12.4463 15.7301 12.3425 15.7108 12.1704C15.6973 12.0504 15.6867 11.9288 15.658 11.812C15.6016 11.5821 15.4794 11.3691 15.286 11.2282C15.1947 11.1616 15.0913 11.1132 14.9829 11.0819C14.8452 11.0421 14.7022 11.0531 14.5648 11.0194C14.4157 10.9829 14.3331 10.8621 14.3566 10.7221C14.3779 10.5947 14.5019 10.4953 14.641 10.5054C15.5108 10.5682 16.1325 11.0179 16.2212 12.0418C16.2275 12.1141 16.2348 12.1905 16.2188 12.2596C16.1913 12.3779 16.1037 12.4372 16.0183 12.443C15.8306 12.4463 16.1037 12.4372 16.0183 12.443Z" fill="white"/>
</g>
<defs>
<clipPath id="clip0">
<rect width="28" height="28" fill="white" transform="translate(-0.000488281)"/>
</clipPath>
</defs>
</svg>
