<svg width="28" height="28" viewBox="0 0 28 28" fill="none" xmlns="http://www.w3.org/2000/svg">
<g clip-path="url(#clip0)">
<path d="M13.9995 28C21.7315 28 27.9995 21.732 27.9995 14C27.9995 6.26801 21.7315 0 13.9995 0C6.26753 0 -0.000488281 6.26801 -0.000488281 14C-0.000488281 21.732 6.26753 28 13.9995 28Z" fill="#3FAB3C"/>
<path fill-rule="evenodd" clip-rule="evenodd" d="M13.4707 20.1403H14.5695C14.5695 20.1403 14.9014 20.1038 15.0709 19.9211C15.2269 19.7534 15.2219 19.4385 15.2219 19.4385C15.2219 19.4385 15.2004 17.9641 15.8847 17.7469C16.5593 17.5331 17.4255 19.172 18.3437 19.8021C19.0379 20.279 19.5655 20.1744 19.5655 20.1744L22.0205 20.1403C22.0205 20.1403 23.3047 20.0611 22.6958 19.0514C22.6459 18.9688 22.3412 18.3045 20.8705 16.9394C19.3312 15.5106 19.5373 15.7417 21.3916 13.2703C22.5209 11.7652 22.9723 10.8463 22.8313 10.4527C22.6968 10.0779 21.8662 10.1769 21.8662 10.1769L19.1021 10.1942C19.1021 10.1942 18.8972 10.1662 18.7452 10.2571C18.5967 10.3462 18.5011 10.5538 18.5011 10.5538C18.5011 10.5538 18.0637 11.7185 17.4802 12.709C16.2493 14.7991 15.7572 14.9094 15.556 14.7796C15.0881 14.4772 15.2049 13.5645 15.2049 12.9162C15.2049 10.8907 15.5121 10.0462 14.6067 9.82756C14.3062 9.75494 14.0851 9.70702 13.3167 9.69928C12.3304 9.68905 11.4956 9.70228 11.023 9.93387C10.7085 10.0879 10.4659 10.431 10.6137 10.4507C10.7964 10.4752 11.2101 10.5623 11.4295 10.861C11.7128 11.2463 11.7028 12.1118 11.7028 12.1118C11.7028 12.1118 11.8655 14.4961 11.3227 14.7924C10.9501 14.9955 10.439 14.5807 9.34166 12.6846C8.7794 11.7133 8.35489 10.6396 8.35489 10.6396C8.35489 10.6396 8.27304 10.439 8.12704 10.3317C7.94985 10.2017 7.70228 10.1602 7.70228 10.1602L5.07563 10.1774C5.07563 10.1774 4.68132 10.1884 4.53657 10.3599C4.4078 10.5124 4.52634 10.8278 4.52634 10.8278C4.52634 10.8278 6.58274 15.6389 8.91117 18.0634C11.0462 20.2863 13.4707 20.1403 13.4707 20.1403Z" fill="white"/>
</g>
<defs>
<clipPath id="clip0">
<rect width="28" height="28" fill="white" transform="translate(-0.000488281)"/>
</clipPath>
</defs>
</svg>
