<svg width="28" height="28" viewBox="0 0 28 28" fill="none" xmlns="http://www.w3.org/2000/svg">
<g clip-path="url(#clip0)">
<path d="M27.3631 14.3182V13.6818C27.3631 6.12556 21.2376 0 13.6813 0C6.12507 0 -0.000488281 6.12556 -0.000488281 13.6818V14.3182C-0.000488281 21.8744 6.12507 28 13.6813 28C21.2376 28 27.3631 21.8744 27.3631 14.3182Z" fill="#3FAB3C"/>
<path d="M4.11218 23.8024L5.45253 18.9312C4.59061 17.4329 4.1368 15.7281 4.1368 13.9768C4.1368 8.58455 8.42402 4.19763 13.6937 4.19763C18.9634 4.19763 23.2506 8.58455 23.2506 13.9768C23.2506 19.3691 18.9634 23.756 13.6937 23.756C12.0517 23.756 10.4439 23.3259 9.02151 22.5093L4.11218 23.8024ZM9.27249 20.7302L9.56502 20.9129C10.8052 21.6876 12.2329 22.0971 13.6937 22.0971C18.0695 22.0971 21.6294 18.4544 21.6294 13.9768C21.6294 9.49927 18.0695 5.85651 13.6937 5.85651C9.31794 5.85651 5.75797 9.49927 5.75797 13.9768C5.75797 15.537 6.1913 17.052 7.01102 18.3581L7.20802 18.672L6.43616 21.4773L9.27249 20.7302Z" fill="white"/>
<path d="M11.009 9.42533L10.3889 9.39074C10.1941 9.37986 10.0031 9.44646 9.85584 9.57733C9.5552 9.84447 9.07449 10.3609 8.92684 11.0339C8.70667 12.0374 9.04693 13.2662 9.92759 14.495C10.8082 15.7238 12.4494 17.6899 15.3515 18.5296C16.2867 18.8002 17.0223 18.6178 17.5899 18.2462C18.0395 17.952 18.3493 17.4797 18.461 16.9458L18.56 16.4726C18.5915 16.3222 18.5169 16.1696 18.3803 16.1052L16.2845 15.1167C16.1484 15.0525 15.9871 15.0931 15.8956 15.2144L15.0728 16.3058C15.0107 16.3883 14.9043 16.421 14.8082 16.3864C14.2448 16.1838 12.3574 15.375 11.3217 13.3337C11.2768 13.2452 11.288 13.1377 11.3517 13.0622L12.138 12.1314C12.2184 12.0363 12.2387 11.9027 12.1904 11.7872L11.287 9.62445C11.2389 9.50932 11.1311 9.43215 11.009 9.42533Z" fill="white"/>
</g>
<defs>
<clipPath id="clip0">
<rect width="27.3636" height="28" fill="white" transform="translate(-0.000488281)"/>
</clipPath>
</defs>
</svg>
